#!OML:ASF F:\VICON\USERDATA\INSTALL\rory3\rory3.ASF
:FULLY-SPECIFIED
:DEGREES
37
root 0.6957646345961255 18.415644198456476 3.2850079692121783 6.395321174489627 -4.941928638828286 -1.4824527524369973
lfemur 7.02974680215587 -2.446340258591404 -24.97851393254747
ltibia 27.05992545612985
lfoot 26.107690769586547 -15.106070570129688
ltoes -19.422183751697517
rfemur -37.82615589733297 1.303875740130418 26.740854629236704
rtibia 46.79699597698674
rfoot 6.233866390089043 -2.1684803959953722
rtoes -5.2591470949907
lowerback 14.740810176354685 -0.517408012999541 -0.05586773002483736
upperback -1.4486330083813583 -0.5325920486643632 1.8269736835416777
thorax -8.292657056607558 -0.1888296103835263 2.4177020862583234
lowerneck -19.625512503583344 -2.1778235891366347 -2.773992141619004
upperneck 8.72350597690683 -2.7346804427937315 4.576822035686092
head 6.213202420527721 -0.9132749542443948 1.6329148234822282
lclavicle -1.5436740960616308e-15 -3.2956578967130706e-15
lhumerus -38.05280130608603 -10.333666371144702 87.6328778687998
lradius 124.65604453591315
lwrist 32.86861398738715
lhand -23.055318009969703 1.8775601020512325
lfingers 7.12502
lthumb 3.95747003238892 31.48772143743313
rclavicle -1.5434162374736193e-15 -3.2969685991420044e-15
rhumerus -67.07167528795691 6.830287287333662 -97.88690221118677
rradius 115.116137006831
rwrist -23.230921045677462
rhand -16.05414053846242 38.98407535326809
rfingers 7.12502
rthumb 9.424499930042217 8.934802570765683
38
root 0.7272639329717261 18.4876742986161 4.214309726183319 6.46861277642507 -5.023640178987895 -0.794039113571009
lfemur 7.9586847961843645 -4.176993999031334 -26.415742982328304
ltibia 28.229912822492256
lfoot 27.950032393084562 -14.691770008940738
ltoes -15.631540074839876
rfemur -36.15611804154836 0.5167392000936606 26.623965812265077
rtibia 37.01465047329012
rfoot 6.573544221341093 -1.5218969667463265
rtoes -7.798471963750247
lowerback 14.314378172983975 -0.7974231953245826 -0.46659312378616
upperback -1.4668626377853262 -0.9745106560015553 1.596999302052768
thorax -7.98334051622136 -0.4007832040222058 2.5589964335552824
lowerneck -19.562104750614438 -2.1382879712932406 -2.840690941334021
upperneck 9.224860356958633 -2.6305301718343332 4.386384665684567
head 6.400029431608296 -0.9146382216751925 1.57444690969573
lclavicle -1.5423467628442931e-15 -3.294720419727969e-15
lhumerus -37.973296232298445 -10.830050182407348 88.15454552012285
lradius 123.89524977775336
lwrist 32.816824287432695
lhand -23.993249164266288 2.8366178247344074
lfingers 7.12502
lthumb 3.4695509518353393 32.23710922629647
rclavicle -1.5430159811773206e-15 -3.2968796418317635e-15
rhumerus -67.8504295436607 5.612594031527069 -97.04457475862726
rradius 116.40677682048536
rwrist -23.374959590933003
rhand -16.31480378008473 38.80424015172765
rfingers 7.12502
rthumb 9.299414009072798 9.145027510873955
39
root 0.74737958513089 18.511018075104534 5.3469058927858 6.396775914552988 -5.810301667292244 -0.17728309443334078
lfemur 8.088058763204273 -4.549525934249113 -27.547320600205985
ltibia 31.496223581177574
lfoot 27.389334096282926 -13.55105337008888
ltoes -15.588397480561868
rfemur -34.57381206018294 0.09829568467828764 26.703370894494363
rtibia 29.480451352607595
rfoot 6.716170978718025 -1.7300831265037626
rtoes -8.343728636228994
lowerback 14.186027584233274 -0.8260425025140853 -0.9560896916732986
upperback -1.4569926713252581 -1.1441148277692181 1.3122963815644861
thorax -7.839657469508991 -0.4603869166352005 2.680422352705005
lowerneck -19.494408049586593 -2.0946958803202147 -2.9044556254641947
upperneck 9.523109084459923 -2.534834573188803 4.280221431064431
head 6.530097757244471 -0.9037950810750797 1.545000663950946
lclavicle -1.5429731397957234e-15 -3.295169948944075e-15
lhumerus -37.68201968462167 -11.23011554714305 88.42020025276354
lradius 122.32290395507519
lwrist 33.09990261211114
lhand -24.63980160120335 2.3178331059394766
lfingers 7.12502
lthumb 2.86846987222626 31.6706883983343
rclavicle -1.5422495022005739e-15 -3.2964907915816617e-15
rhumerus -68.29460556254834 4.324962305450443 -96.45392707645227
rradius 117.49040769053386
rwrist -23.287402205664122
rhand -16.341672209500445 38.322267495166834
rfingers 7.12502
rthumb 9.27881989561609 9.73595757014702
40
root 0.7652944376802775 18.524124026942296 6.430500355576468 6.500375169097484 -6.122346756331062 0.037390209743576985
lfemur 7.014184185093285 -5.046028453372429 -27.851219544835434
ltibia 36.91881248879081
lfoot 26.678654074837695 -12.82208866144349
ltoes -16.147356985210983
rfemur -33.475392782821075 -0.28494250037977187 27.17432114318398
rtibia 24.355890170418476
rfoot 6.327524220155599 -3.000422427338565
rtoes -8.560874172290712
lowerback 13.924258288329012 -0.9423695963036706 -0.7963724360005826
upperback -1.4566343012483403 -1.3287134763636752 1.1125878889107925
thorax -7.600086231315928 -0.5431896677304492 2.5678310236149775
lowerneck -19.347730733722145 -2.1169717645581354 -2.936452544303275
upperneck 9.518129273549373 -2.506915969105694 4.103861164230968
head 6.455269808778651 -0.9164073614193511 1.4751388525523115
lclavicle -1.5453910052695753e-15 -3.296876728714638e-15
lhumerus -37.670061856207155 -11.56795233452005 88.48443597474565
lradius 119.97239686451151
lwrist 32.225427143904625
lhand -24.899687110673046 1.9680729003468118
lfingers 7.12502
lthumb 2.108318420510428 31.491447777078225
rclavicle -1.541706492415086e-15 -3.2959814994635076e-15
rhumerus -68.2257269216307 2.8416072567862294 -95.93472219414372
rradius 117.94270088520656
rwrist -22.544320500840282
rhand -15.879351682365684 38.566584207943826
rfingers 7.12502
rthumb 9.085653814407033 10.175520584193157
